<svg xmlns="http://www.w3.org/2000/svg" width="200" height="200" stroke="none" stroke-linecap="round" stroke-linejoin="round" fill="#fff" fill-rule="evenodd"><path d="M100 0h0 0L0 33.2l15.2522 123.1L100 200h0 0l84.7478-43.7L200 33.2z" fill="#dd0031"/><path d="M100 0v22.2-.1 101.3h0V200h0l84.7478-43.7L200 33.2 100 0z" fill="#c3002f"/><path d="M100.0001 22.1L37.4867 152.6h0 23.3081 0l12.5677-29.2h53.0604l12.5677 29.2h0 23.3081 0L100.0001 22.1h0 0 0 0zm18.26 83.3H81.7403l18.2598-40.9 18.26 40.9z"/></svg>