<svg xmlns="http://www.w3.org/2000/svg" width="200" height="200" stroke="#000" stroke-linecap="round" stroke-linejoin="round" fill="#fff" fill-rule="evenodd"><defs><linearGradient id="A" x1="0%" y1="100%" x2="100%" y2="0%"><stop offset="0%" stop-color="#070135"/><stop offset="100%" stop-color="#612d50"/></linearGradient></defs><g stroke="none"><path d="M200 30.7689C200 12.3079 184.6158 0 166.1531 0H33.8474C15.3842 0 0 12.3079 0 30.7689v138.4624C0 187.6921 15.3842 200 33.8474 200h132.3057C184.6158 200 200 187.6921 200 169.2313z" fill="url(#A)"/><path d="M98.5914 86.8601c5.1817 0 9.1123-1.1391 11.7887-3.416s4.0158-5.6361 4.0158-10.0763c0-4.384-1.3393-7.7151-4.0158-9.9919-2.6764-2.3352-6.607-3.5006-11.7887-3.5009H80.3922v26.9851h18.1992m1.1097 55.7649c6.6068 0 11.5618-1.3937 14.8663-4.1841 3.36-2.7894 5.0403-7.0016 5.0403-12.6398 0-5.5212-1.6519-9.6491-4.9556-12.3816-3.3039-2.7905-8.2878-4.1842-14.951-4.1842H80.3922v33.3897h19.3089m30.5863-45.8577c7.0617 2.0488 12.5297 5.8357 16.404 11.3569s5.8085 12.2968 5.8086 20.3247c-.0001 12.2984-4.1566 21.4638-12.4726 27.499S119.0674 165 102.0931 165H47.5V37.5h49.3811c17.7143 0 30.5303 2.676 38.4466 8.0278 7.9734 5.3517 11.9604 13.92 11.9605 25.7043-.0001 6.2069-1.4523 11.5005-4.3565 15.8841-2.9043 4.3276-7.1199 7.5438-12.6443 9.6511"/></g></svg>