<svg xmlns="http://www.w3.org/2000/svg" width="200" height="245" stroke="none" stroke-linecap="round" stroke-linejoin="round" fill="#fff" fill-rule="evenodd"><path d="M200 45.9375H0L16.6667 222.032 100 245l83.3333-22.968L200 45.9375" fill="#1572b6"/><path d="M173.7466 160.782l1.4747-15.3125 2.2121-22.9695 2.2132-22.968 2.212-22.9695 1.4747-15.3125H100v168.4375l51.4913-13.9454 17.4154-4.7171 2.2719-23.5839 2.2719-23.5838z" fill="#33a9dc"/><path d="M73.3333 0h-30v33.6875h30V24.5h-20V9.1875h20zm43.3333 0v9.1875H100L116.6666 24.5v9.1875H83.3333V24.5H100L83.3333 9.1875V0zM160 0v9.1875h-16.6666L160 24.5v9.1875h-33.3333V24.5h16.6667L126.6667 9.1875V0z" fill="#000"/><path d="M82.8466 203.5949l-8.6894-2.3582-27.8079-7.5479-2.2675-23.5839-.7485-7.7924h27.0826l1.4739 15.3403 8.6902 2.3583L100 185.282v22.968zM38.826 101.0625h26.4846 8.2762H100v-24.5H71.428h-8.2766-26.4847z" fill="#ebebeb"/><path d="M100 185.0108l27.4895-7.7186 1.4424-15.5199 1.4396-15.4927H100v-23.2393h32.5306l2.1588-23.2386H100V76.5625h36.8481 26.4852l-2.1587 23.2392-2.1591 23.2386-2.1595 23.2393-1.4395 15.4927-.7324 7.8848-2.2166 23.8618-27.1948 7.6354L100 208.25v-23.2392z"/><path d="M100 147H78.744l-2.0773-24.5H100z" fill="#ebebeb"/></svg>