<svg xmlns="http://www.w3.org/2000/svg" width="201" height="201" stroke="none" stroke-linecap="round" stroke-linejoin="round" fill="#fff" fill-rule="evenodd"><path d="M199.6271 114.3533l-11.1917-37.388L166.2551 2.86c-1.1408-3.8133-6.1076-3.8133-7.2484 0l-22.1804 74.1053H63.1745L40.9941 2.86c-1.1415-3.8133-6.1077-3.8133-7.2489 0L11.5648 76.9653.3733 114.3533c-1.0197 3.412.0971 7.1464 2.7691 9.2581L100.0023 200l96.855-76.3886c2.672-2.1117 3.7888-5.8461 2.7698-9.2581" fill="#fc6d26"/><path d="M100.0001 200.0001h0L136.5519 77.037H63.4483l36.5518 122.9631h0z" fill="#e24329"/><path d="M99.3104 200.0001L62.5495 77.037h-51.515l88.2759 122.9631h0z" fill="#fc6d26"/><path d="M11.6441 77.037h0L.3754 114.4036c-1.026 3.4098.0985 7.1454 2.793 9.2518l97.5213 76.3447L11.6441 77.037h0z" fill="#fca326"/><path d="M11.0345 77.0372h51.0347L40.1355 2.8627c-1.128-3.8169-6.0399-3.8169-7.1678 0L11.0345 77.0372h0z" fill="#e24329"/><path d="M100.6897 200.0001L137.4463 77.037h51.5193l-88.2759 122.9631h0z" fill="#fc6d26"/><path d="M188.3553 77.037h0l11.2686 37.3666c1.0269 3.4098-.0983 7.1454-2.7931 9.2518l-97.5205 76.3447 89.045-122.9631h0z" fill="#fca326"/><path d="M187.5864 77.0372h-51.0347l21.9332-74.1745c1.1279-3.8169 6.0398-3.8169 7.1678 0l21.9337 74.1745h0z" fill="#e24329"/></svg>