<svg xmlns="http://www.w3.org/2000/svg" width="200" height="245" stroke="none" stroke-linecap="round" stroke-linejoin="round" fill="#fff" fill-rule="evenodd"><path d="M200 45.9375H0l16.6668 176.0944L100 245l83.3332-22.9681L200 45.9375" fill="#e44d26"/><path d="M23.3333 0v33.6875h10v-12.25h13.3332v12.25h10V0h-10v12.25H33.3333V0zm80 0v33.6875h10v-18.375l8.3332 12.25 8.3336-12.25v18.375h10V0h-10l-8.3336 10.7194L113.3333 0zm43.3334 0v33.6875h30V24.5h-20V0z" fill="#000"/><path d="M74.1572 201.2365l-27.8079-7.5476-2.2678-23.5838-.7482-7.7926h27.0826l1.4736 15.3402 28.1106 7.6292V208.25zm25.8427-101.1947H65.3106l2.1594 23.4789h32.5299V147H69.6292 43.1439l-2.1587-23.4793-2.1592-23.4789-2.1593-23.4793h26.4851 36.8481z" fill="#ebebeb"/><path d="M173.7466 160.7819l1.4746-15.3125 2.2122-22.9694 2.2132-22.9681 2.212-22.9694 1.4746-15.3125H100v168.4375l51.4913-13.9454 17.4155-4.717 2.2718-23.5838 2.2719-23.5838z" fill="#f16529"/><path d="M63.3333 0v9.1875h11.6668v24.5h10v-24.5h11.6664V0z" fill="#000"/><path d="M100 101.0625h34.6894 26.4852l2.1586-24.5h-26.4851H100zm30.8785 44.8244H100V122.5h33.0732H160l-2.1958 23.3869-1.463 15.5909-.745 7.9344-2.2534 24.0121-27.648 7.6848L100 208.25v-23.3864l27.9482-7.7678 1.4666-15.618z"/></svg>