<svg xmlns="http://www.w3.org/2000/svg" width="201" height="251" stroke="#646464" stroke-linecap="round" stroke-linejoin="round" fill="#fff" fill-rule="evenodd"><path d="M67.8021 133.7474s-10.2076 3.979 7.1009 5.1165c20.8588 1.7052 31.9535 1.421 55.0315-1.4215 0 0 6.2136 2.558 14.6455 4.5476-51.9242 14.212-117.608-.8526-76.7779-8.2426h0zm-6.6576-18.475s-11.0947 5.401 6.2136 6.5371c22.6342 1.4211 40.386 1.7053 71.0097-2.2741 0 0 3.9939 2.8432 10.6503 4.2638-62.5763 11.9378-132.6978 1.137-87.8724-8.5268h-.0012zm122.4913 32.4024s7.5442 3.9794-8.4328 7.1052c-29.735 5.6849-124.7105 7.39-151.3387 0-9.32-2.5576 8.4322-6.2526 14.2022-6.8209 5.7695-.8527 8.876-.8527 8.876-.8527-10.2067-4.5475-67.9024 9.3792-29.2907 13.3585 106.0685 11.085 193.5-4.8313 165.9827-12.7901h.0013zM72.684 95.9445s-48.3755 7.3903-17.3082 9.948c13.314 1.137 39.4983.8529 63.908-.2836 19.9703-1.1377 39.9423-3.4114 39.9423-3.4114s-7.1004 1.9899-11.9823 3.9795c-49.2633 8.2425-143.7937 4.5478-116.722-3.9795 23.0783-7.1061 42.162-6.253 42.162-6.253h.0002zm86.5421 30.9809c49.7062-16.4854 26.6284-32.4015 10.6517-30.4118-3.9948.5678-5.7697 1.1362-5.7697 1.1362s1.3319-1.7053 4.438-2.2742c31.5102-7.1056 56.3636 21.318-10.2071 32.4033 0 0 .4431-.2847.8871-.8535h0zm-81.66 44.9091c47.9304 1.9897 121.1584-1.137 122.9339-15.6325 0 0-3.5503 5.6844-39.4983 9.9475-40.8307 4.8319-91.4236 4.2641-121.1592 1.1369 0 0 6.2133 3.4111 37.7232 4.5481h.0004z" fill="#4e7896"/><path d="M130.1345.5s27.4306 18.0405-26.1039 45.2455c-42.9161 22.051-9.7341 34.6512 0 48.9696C78.8119 80.1102 60.6719 67.2245 73.06 55.1955 91.1999 37.4415 141.1949 28.8502 130.1345.5h0zm-14.1584 82.1882c12.8308 9.4501-3.54 18.0416-3.54 18.0416s32.7404-10.883 17.6984-24.3416c-13.7158-12.8877-24.3345-19.1877 33.182-40.6647 0 0-90.6991 14.605-47.3404 46.9647h0zM83.2359 236.4683v-28.0638c0-7.1597-6.1934-12.029-21.6794-12.029-8.8486 0-16.37 1.4328-23.0074 3.15l2.2134 5.1548c4.8656-1.1452 11.0604-2.2904 17.6971-2.2904 8.4069 0 12.3883 2.2904 12.3883 6.8733v3.722h-4.4244c-21.237 0-30.9714 5.1549-30.9714 13.4598 0 6.8732 6.637 10.8817 18.5828 10.8817 7.5216 0 13.2732-2.2914 18.5825-5.1548l.8851 4.2964h9.7334 0zm-12.388-9.1636c-4.4244 2.5758-9.2914 4.0088-13.7159 4.0088-5.7515 0-9.2907-2.2904-9.2907-6.3002s3.5392-6.8732 17.6972-6.8732h5.3094v9.1646h0zm53.9766 9.1636h-15.4849l-18.5825-39.2332h13.2738l11.5025 24.055 2.6546 7.1597c5.752-10.3097 10.1765-20.905 11.9465-31.2147h13.2731c-3.5396 12.8866-9.7342 26.9196-18.5831 39.2332h0zm71.6755 0v-28.0638c0-7.1597-6.1946-12.029-21.68-12.029-8.8484 0-16.3695 1.4328-23.0066 3.15l1.7702 5.1548c5.3085-1.1452 11.5031-2.2904 18.14-2.2904 8.4058 0 12.3883 2.2904 12.3883 6.8733v3.722h-4.424c-21.2374 0-30.9714 5.1549-30.9714 13.4598 0 6.8732 6.1942 10.8817 18.1396 10.8817 7.9639 0 13.7158-2.2914 19.025-5.1548l.8856 4.2964H196.5h0zm-12.3881-9.1636c-4.424 2.5758-9.2919 4.0088-13.7163 4.0088-5.7516 0-9.2911-2.2904-9.2911-6.3002s3.5395-6.8732 17.6982-6.8732h5.3092v9.1646h0zM21.7365 243.0548c-3.5392 3.4354-8.8484 6.0135-15.4845 7.4452L.5 245.9182c4.4241-1.7183 8.8485-4.2951 10.6186-6.5867 1.7695-2.0047 2.2123-4.8682 2.2123-11.4548v-44.6732H26.604v44.1012c0 8.8768-1.3279 12.3135-4.8675 15.7501h0z" fill="#f58219"/></svg>