<svg xmlns="http://www.w3.org/2000/svg" width="200" height="178" stroke="none" stroke-linecap="round" stroke-linejoin="round" fill="#003545" fill-rule="nonzero"><path d="M36.2238 146.6514l7.2628 30.6293h-5.4823l-4.8377-22.0628-9.1202 22.0628h-4.6316l-9.0687-21.9365-4.9796 21.9365H0l7.1982-30.6293h4.7477l9.8039 23.716 9.7654-23.716zm27.9742 11.8369v-3.5657h5.2957v22.3583H64.198V173.68c-1.3998 2.5881-4.2763 4.0718-7.7788 4.0718-7.3204 0-11.4037-5.6262-11.4037-12.097 0-6.2381 3.8702-11.2529 10.6231-11.2529 3.8509.0492 7.0435 1.456 8.5594 4.0864zm-13.5449 7.469c0 4.1144 2.3736 7.6379 6.9658 7.6379 4.4316 0 6.8436-3.4389 6.8436-7.5111s-2.4895-7.5536-7.095-7.5536c-4.4117 0-6.7082 3.4744-6.7082 7.4268zm30.7799 11.3235h-5.2892v-22.3585h5.2892v5.0077c1.2366-3.2746 4.1442-5.4303 7.3919-5.4789 1.1262-.0168 2.2465.1831 3.3089.5908l-1.1291 4.22c-.9135-.2645-1.8538-.4063-2.7988-.422-3.8187 0-6.7729 3.1367-6.7729 7.7365zm13.3453-28.2592c-.0211-.8201.2738-1.6123.8132-2.1842s1.2736-.8717 2.0249-.8261c.7652-.0272 1.5072.2895 2.0522.8759s.8455 1.3911.8308 2.2258c.0152.8232-.2895 1.6151-.8386 2.1803s-1.2917.8514-2.0444.7877c-.7567.0356-1.4928-.274-2.0312-.8546s-.8309-1.3795-.8069-2.2048zm.2321 5.9008h5.2956v16.3381c0 1.0127.1934 1.737.9676 1.737a5.251 5.251 0 0 0 1.0126-.1265l.8192 4.2199c-1.1149.4791-2.3042.7181-3.5024.7032-2.2188 0-4.5926-.7032-4.5926-6.1961zm28.9481 3.5659v-3.5657h5.315v22.3583h-5.2957V173.68c-1.3998 2.5881-4.2763 4.0718-7.7788 4.0718-7.3143 0-11.4037-5.6262-11.4037-12.097 0-6.2381 3.8702-11.2529 10.6231-11.2529 3.8317.0492 7.0243 1.456 8.5401 4.0864zm-13.5448 7.469c0 4.1144 2.3735 7.6379 6.9659 7.6379 4.4378 0 6.8498-3.4389 6.8498-7.5111s-2.4959-7.5536-7.0952-7.5536c-4.418 0-6.7143 3.4744-6.7143 7.4268zm26.9678-19.3059h12.6873c10.6623 0 15.9899 6.4072 15.9123 15.3112.0776 9.2555-5.8045 15.3181-14.977 15.3181h-13.6226zm3.5024 2.7149v25.242h9.6751c8.4824 0 11.7134-6.2386 11.7134-12.73 0-7.3356-4.044-12.512-11.7134-12.512zm46.7311 27.9144h-16.1252v-30.6293h14.5446c5.5604 0 10.8561 1.1395 10.7785 7.9335 0 4.7895-2.7281 6.1117-5.6053 6.6182 4.0832.3798 6.5406 3.2212 6.5406 7.8066.0261 6.8716-5.5018 8.271-10.1332 8.271zm-1.206-17.2663c5.5662 0 6.8113-2.3348 6.8113-5.3032 0-4.459-2.4896-5.4716-6.8113-5.4716h-11.5589v10.7748zm.1546 2.5882h-11.7135v12.09h12.2165c3.425 0 7.0436-1.2309 7.0436-5.936 0-5.4297-4.16-6.154-7.5466-6.154zM198.9864.6711c-.5136-.4619-1.1664-.6999-1.8317-.6683-1.8254 0-4.1859 1.3506-5.4565 2.0749l-.5037.2814c-2.1308 1.1249-4.4515 1.7617-6.8174 1.8708l-7.2375.5485c-16.1253 1.8076-23.3169 15.2831-30.2444 28.3156-3.7735 7.0894-7.6691 14.4531-13.0099 20.0796-1.1049 1.1683-2.2794 2.2562-3.5154 3.2564-5.5278 4.4801-12.4679 7.6802-17.8668 9.945-5.1984 2.1662-10.8746 4.1143-16.3575 5.9992-5.0247 1.723-9.7656 3.3548-14.1257 5.1201-1.9673.7948-3.6379 1.4067-5.1153 1.9412-3.9732 1.4067-6.8367 2.4827-11.023 5.6266-1.632 1.2167-3.2703 2.5318-4.3793 3.5166-3.3232 2.891-6.264 6.2683-8.7403 10.0362-2.1288 3.4757-4.5896 6.6961-7.3404 9.6074-.8837.9424-2.4511 1.4066-4.7985 1.4066-2.748 0-6.083-.6189-9.6109-1.273-3.638-.7032-7.3981-1.3715-10.6231-1.3715-2.6188 0-4.625.4641-6.1213 1.4067 0 0-2.522 1.6034-3.5864 3.6783l1.0453.5134c1.6198.9579 3.1204 2.1399 4.4631 3.5165 1.4011 1.4112 2.9617 2.6211 4.6439 3.6011.5373.2147 1.0258.5528 1.4321.9917-.4384.7033-1.0836 1.6106-1.7608 2.5811-3.7216 5.3101-5.8957 8.6648-4.6505 10.4935.5968.3379 1.2631.5026 1.935.4783 8.1143 0 12.4744-2.3 17.9897-5.2116 1.599-.8441 3.2249-1.7091 5.16-2.6022 3.2249-1.5262 6.6951-3.9598 10.3779-6.534 4.8183-3.4251 9.856-6.9417 14.7452-8.6366 4.0183-1.336 8.2036-1.9768 12.4036-1.8991 5.1599 0 10.5908.7527 15.8285 1.4841 3.9024.5486 7.9465 1.1112 11.9136 1.3714 1.5413.0986 2.9671.1479 4.3539.1479a46.337 46.337 0 0 0 5.5532-.3165l.4452-.1689c2.7802-1.8639 4.0831-5.8656 5.3471-9.7339.8127-2.4897 1.4965-4.7262 2.5801-6.1471.0639-.0693.1331-.1327.2061-.1898.1048-.0634.2358-.0401.3162.0562s0 .0352 0 .1126c-.6447 15.1283-6.2307 24.7357-11.8807 33.2739l-3.7736 4.4098s5.2827 0 8.2884-1.2659c10.9654-3.573 19.2409-11.45 25.2654-24.0113 1.4855-3.2246 2.814-6.5325 3.9795-9.9097.1031-.2813 1.0513-.8018.9613.654l-.0906 1.4067h0c0 .2953 0 .5977-.0516.9001-.1546 2.11-.6128 6.5691-.6128 6.5691l3.3863-1.9763c8.1662-5.6266 14.4615-16.9781 19.2348-34.6382 1.9865-7.3569 3.4441-14.6643 4.7277-21.0996 1.5352-7.7365 2.8572-14.3688 4.3732-16.9431 2.3799-4.0369 6.0114-6.7659 9.527-9.4172.477-.3587.9608-.7034 1.4314-1.0833 4.4186-3.3828 8.8109-7.2863 9.7785-14.5656v-.1618c.703-5.4294.11-6.8151-.5676-7.448z"/></svg>