<svg xmlns="http://www.w3.org/2000/svg" width="201" height="200" stroke="#000" stroke-linecap="round" stroke-linejoin="round" fill="#fff" fill-rule="evenodd"><defs><linearGradient id="A" x1="52%" y1="0%" x2="48%" y2="100%"><stop offset="0%" stop-color="#387eb8"/><stop offset="100%" stop-color="#366994"/></linearGradient><linearGradient id="B" x1="50%" y1="0%" x2="50%" y2="100%"><stop offset="0%" stop-color="#ffe052"/><stop offset="100%" stop-color="#ffc331"/></linearGradient></defs><g stroke="none"><path d="M98.7357 0C48.2405 0 51.3946 22.2193 51.3946 22.2193l.0546 23.0199h48.1867v6.9096H32.3117S0 48.4315 0 100.1278s28.2014 49.8642 28.2014 49.8642h16.8311v-23.9892s-.9074-28.6177 27.7518-28.6177h47.7919s26.8513.4417 26.8513-26.3298V26.7887S151.5045 0 98.7357 0zM72.1651 15.48c2.2999-.0012 4.5066.924 6.132 2.5732s2.539 3.89 2.5375 6.2228-.9108 4.572-2.5375 6.2212-3.8321 2.5776-6.132 2.5748c-2.2985.0028-4.5051-.924-6.1319-2.5748s-2.5377-3.8884-2.5362-6.2212.9109-4.572 2.5362-6.2228 3.8334-2.5744 6.1319-2.5732z" fill="url(#A)"/><path d="M101.2659 200c50.4939 0 47.3412-22.2189 47.3412-22.2189l-.0559-23.0178h-48.1866v-6.9114h67.3242s32.3113 3.7193 32.3113-47.98-28.2015-49.8639-28.2015-49.8639h-16.8314v23.9908s.9077 28.616-27.752 28.616H79.4238s-26.8508-.44-26.8508 26.3324v44.2646S48.4958 200 101.2648 200zm26.5693-15.4772c-2.2997.001-4.5054-.9237-6.1317-2.5751s-2.5387-3.8881-2.5364-6.2206.9103-4.5723 2.5364-6.2235 3.832-2.5761 6.1317-2.5749 4.5056.924 6.132 2.5748 2.5387 3.8882 2.5363 6.2212-.9105 4.572-2.5363 6.2226-3.8321 2.5762-6.132 2.5729z" fill="url(#B)"/></g></svg>