<svg xmlns="http://www.w3.org/2000/svg" width="200" height="200" stroke="#000" stroke-linecap="round" stroke-linejoin="round" fill="#fff" fill-rule="evenodd"><rect x="30" y="80" width="165" height="110" rx="15"/><path d="M0 100v100h100 100V100 0H100 0v100zm161.1745-7.9681c5.079 1.2693 8.9525 3.5239 12.5083 7.2067 1.8411 1.9681 4.5704 5.5547 4.7933 6.4128.0638.2531-8.6351 6.0952-13.9048 9.3645-.1906.1271-.9523-.6987-1.8098-1.9681-2.5707-3.7466-5.2696-5.365-9.3965-5.6512-6.0638-.4126-9.9683 2.7624-9.9367 8.0635 0 1.5558.2226 2.4761.8569 3.7467 1.3338 2.7613 3.8098 4.4126 11.5878 7.7772 14.3178 6.1594 20.4441 10.2227 24.254 16 4.2537 6.4442 5.2061 16.7307 2.3171 24.381-3.1746 8.3178-11.0478 13.968-22.1269 15.8418-3.4285.6024-11.5548.5079-15.2375-.159-8.032-1.4282-15.6514-5.3968-20.3502-10.6036-1.8408-2.0317-5.4283-7.3326-5.2058-7.7136.0952-.1272.9204-.635 1.841-1.1748l7.4285-4.2865 5.7465-3.3331 1.2067 1.7785c1.6819 2.5706 5.3645 6.0945 7.5867 7.2694 6.3813 3.3649 15.143 2.8885 19.4601-.9841 1.8416-1.6828 2.6035-3.4284 2.6035-6 0-2.3172-.2854-3.3332-1.4924-5.0798-1.5553-2.2214-4.7295-4.0952-13.7454-7.9997-10.3179-4.4444-14.7622-7.2058-18.8259-11.5873-2.349-2.5399-4.5706-6.6025-5.4919-10.0002-.7614-2.8251-.9528-9.9048-.3491-12.7614 2.1269-9.968 9.651-16.9206 20.5079-18.984 3.5238-.6671 11.7145-.4128 15.1746.4443zm-46.9521 8.3486l.0628 8.1911h-13.016-13.016v36.9842 36.9841h-9.2055-9.2067v-36.9841-36.9842H56.8251 43.8092v-8.0318c0-4.4442.0951-8.1592.2225-8.2545.0952-.1265 15.9364-.1897 35.1431-.1583l34.9521.0956.0955 8.1579z" fill="#007acc" stroke="none"/></svg>