<svg xmlns="http://www.w3.org/2000/svg" width="202" height="202" stroke="#000" stroke-linecap="round" stroke-linejoin="round" fill="#fff" fill-rule="evenodd"><path d="M196.9892 91.8459l-87.342-87.324c-5.0234-5.0292-13.1812-5.0292-18.2145 0L73.3019 22.6557l22.9988 22.998c5.3494-1.8051 11.4754-.5891 15.7277 3.6603 4.1415 4.148 5.5527 10.296 3.6335 15.8357l22.1706 22.1681c5.3015-1.848 11.5458-.6472 15.8338 3.6281 3.8797 3.8693 5.3956 9.5163 3.9765 14.8083s-5.5572 9.4218-10.8512 10.8327-10.933-.0936-14.804-3.968c-4.4999-4.5051-5.6083-11.1213-3.3323-16.6688l-20.6195-20.6169v54.4061c1.4148.7266 2.8374 1.6829 4.0542 2.8989 5.9852 5.9843 5.9852 15.6839 0 21.6772-2.8733 2.8768-6.7719 4.4937-10.838 4.4937s-7.9643-1.6169-10.8374-4.4937c-5.9855-5.9983-5.9855-15.6929 0-21.6772 1.4365-1.4353 3.1421-2.5723 5.0193-3.3469V74.3902c-1.7677-.7534-3.5348-1.8564-5.0193-3.2986-4.4004-4.397-5.704-11.0176-3.2988-16.7534L64.4372 31.6569 4.5112 91.4352c-5.0149 5.0387-5.0149 13.182 0 18.2197l87.3459 87.3241c5.024 5.0279 13.1826 5.0279 18.215 0l86.9171-86.9138c5.0144-5.0384 5.0144-13.1822 0-18.2193" stroke-linejoin="miter" stroke-linecap="butt" fill="#f03c2e" fill-rule="nonzero" stroke-width="1.5" stroke="#4f4f4f"/></svg>