<svg xmlns="http://www.w3.org/2000/svg" width="202" height="202" stroke="#000" stroke-linecap="round" stroke-linejoin="round" fill="#fff" fill-rule="evenodd"><circle cx="100.8722" cy="100.8722" stroke="none" r="100"/><path d="M100.8722.8722c-55.2239 0-100 45.9035-100 102.5212 0 45.3057 28.6494 83.727 68.3909 97.279 5 .9412 6.8239-2.228 6.8239-4.9315l-.1432-19.0858c-27.8102 6.1947-33.6864-12.0882-33.6864-12.0882-4.5522-11.8397-11.1016-14.9921-11.1016-14.9921-9.0882-6.3581.7136-6.2353.7136-6.2353 10.0414.7129 15.3267 10.5642 15.3267 10.5642 8.9238 15.6693 23.4118 11.138 29.1027 8.5097.9092-6.6104 3.5-11.1379 6.3467-13.693-22.1972-2.5882-45.5466-11.3878-45.5466-50.6725 0-11.1995 3.8999-20.3354 10.2852-27.5132-1.0193-2.6026-4.4625-13.0351.9881-27.1451 0 0 8.3852-2.7528 27.5 10.5132 7.9716-2.2828 16.5239-3.4119 25-3.4472 8.4954.0371 17.0523 1.1763 25.0357 3.4582 19.0807-13.2788 27.4762-10.5125 27.4762-10.5125 5.4688 14.124 2.0238 24.5399 1 27.1334 6.4091 7.176 10.279 16.312 10.279 27.5132 0 39.3858-23.388 48.0588-45.667 50.5969 3.6028 3.1765 6.7852 9.4114 6.7852 18.973l-.133 28.1333c0 2.7288 1.8193 5.9197 6.8853 4.9406 39.7119-13.5951 68.3386-52.016 68.3386-97.2983 0-56.6177-44.7761-102.5212-100-102.5212z" fill="#000" stroke="#fff" stroke-width="1.7443"/></svg>