<svg xmlns="http://www.w3.org/2000/svg" width="200" height="200" stroke="none" stroke-linecap="round" stroke-linejoin="round" fill="#fff" fill-rule="evenodd"><rect fill="#f7df1e" height="200" width="200" rx="15"/><path d="M90 158.1077V92.5h17.5v65.6077c0 25.233-35 40.3731-55 10.093l15-10.093c7.5 15.14 22.5 10.093 22.5 0zm76.2506-43.0267c-10-13.8769-22.5-7.569-22.5 1.2616 0 13.8773 41.2494 11.3542 41.2494 41.631-1.2494 35.3234-50 34.0623-65 7.5696l15-8.8311c11.2506 17.6615 31.2506 11.3543 31.2506 1.2615-1.2506-17.6615-40-8.8308-40-41.631C125 91.1119 162.5 77.2346 180 106.2504l-13.7494 8.8306" fill="#323232"/></svg>