<svg xmlns="http://www.w3.org/2000/svg" width="206" height="242" stroke="#000" stroke-linecap="round" stroke-linejoin="round" fill="#fff" fill-rule="nonzero"><g stroke="#262626" stroke-linejoin="miter"><path d="M104.4284 41.8403l8.3091 10.0281c1.8083 1.8082 3.9146 3.4881 6.281 5.0088 6.9597 4.4671 13.5829 9.1474 19.5138 14.163 14.0871 11.8721 23.5919 25.056 30.3844 39.3313 4.071 8.7166 6.2819 17.6488 6.4485 26.6888.6866 27.0195-13.7508 50.22-42.946 69.5039-4.7305 3.0565-9.8395 5.8636-15.2762 8.3886-2.8956 0-4.2457-1.4676-5.4352-2.7243-2.2858-2.4446-3.5669-5.1205-4.2453-7.8405-1.0211-3.2679-1.6996-6.5359-1.3571-9.916v-1.5274c-.1672-.328-2.7129-150.3363-1.6994-151.1001z" fill="#599636"/><path d="M104.4293 41.5169c-.343-.44-.6862-.1065-1.0214.1079.1674 2.1793-1.0212 4.1397-2.8954 5.9936-2.0362 1.8583-4.7572 3.2669-7.4712 4.7941-15.1088 8.3888-26.9846 18.5201-36.498 29.8494-12.5623 15.2542-19.1784 31.5916-21.039 48.8066-.8382 6.2123 3.049 28.1083 6.1142 34.424 8.308 16.7799 23.2486 30.8283 42.6866 43.0287 4.7567 2.9353 9.8489 5.6644 15.1085 8.2772 1.5247 0 1.6996-.87 2.0352-1.5258.6653-1.3805 1.1751-2.803 1.5249-4.2518 1.5243-5.4443 2.3786-10.8927 3.3917-16.3387L104.498 41.5169z" fill="#6cac48"/></g><path d="M112.7629 221.5967c.3427-2.5042 2.2874-4.575 4.2456-6.6438-2.0355-.5365-3.5672-1.6325-4.7571-2.8363-1.0213-1.0917-1.8669-2.4475-2.5448-3.5959-2.3794-4.575-2.8974-9.368-3.5677-14.0556v-2.8363c-.8379.4401-1.0219 4.1396-1.0219 4.6876-.5098 5.0083-1.524 9.916-3.0488 14.7042-.5101 1.9562-.8388 3.9239-2.7137 5.6642 0 .2201 0 .4401.1675.7638 3.049 5.7721 3.903 11.6563 4.421 17.6485v2.1789c0 2.6124-.1674 2.0686 3.2246 2.9331 1.3564.3279 2.8969.44 4.246 1.0917 1.0215 0 1.1895-.5368 1.1895-.9791l-.5107-3.5937v-10.0303c-.1684-1.7408.3427-3.4859.6854-5.1209z" stroke="none" fill="#c2bfbf"/><path d="M8.1554 18.563v4.4096c-.0059.1748.0061.3498.0357.5222.0689.522.4552.8402 1.0229.9867.5296.1157 1.0678.2033 1.6109.2612.3147.0295.4192.1445.4553.4249.0359.9868-.0691 1.1035-1.2221 1.0441-2.6902-.1162-5.383-.1444-8.0731 0h-.2557c-.8388.0301-.908-.0292-.908-.726 0-.1167.0363-.2612.0363-.3776 0-.2125.1734-.3188.419-.3188.5627-.0569 1.0843-.174 1.6112-.261.7337-.1442 1.1506-.522 1.222-1.1317.1026-.6665.1026-1.3625.1026-2.0316l.0356-7.7742c.0236-.4602-.2754-.8903-.7668-1.1035-.6328-.2921-1.3014-.5253-1.995-.6968-.2096-.0573-.4192-.0849-.5932-.1738-.5113-.2038-.5243-.5795-.0354-.8134.1734-.0849.3833-.1444.5929-.1739 2.1208-.26 4.2046-.6972 6.2192-1.3057.4191-.117.5239-.0849.5624.2614.0357.2119 0 .4665-.036.6665-.0689.3778-.0689.7534-.0689 1.1037 0 .1444.0357.2908.2094.3779s.3506 0 .5118-.085c.7341-.4665 1.4677-.8999 2.2708-1.2738 1.1505-.522 2.3778-.9871 3.7077-1.131 1.6109-.1745 3.0046.1737 4.2294 1.0442.5064.3762.9523.8048 1.3273 1.2757.3503.4246.3833.4352.8387.1444 1.3297-.8131 2.7258-1.5371 4.2294-2.0592 1.5726-.552 3.181-.6369 4.7866-.1738 1.6419.4922 2.762 1.45 3.427 2.7556.5624 1.0442.8028 2.1227.8028 3.248v7.774c0 .5227.2556.8494.8746 1.1044.6651.2123 1.3987.318 2.0967.4352.4552.085.4552.085.4552.4672-.0688.9548-.1739 1.0143-1.2939.9548a90.741 90.741 0 0 0-8.4204 0c-.5626.0299-.5626.0299-.5935-.4353v-.1438c-.0356-.786-.0356-.786.8747-.9554l.9076-.2038c.6333-.1239 1.0814-.5918 1.0845-1.1319l.102-2.176-.0691-5.685c-.0267-.508-.156-1.0082-.3831-1.48-.8748-1.7704-2.7951-2.4076-4.6494-2.2331-1.3984.1163-2.6207.5797-3.7742 1.2482-.2453.1444-.4192.3181-.3834.6089.3144 1.8578.1024 3.7158.1403 5.5709v4.0337c0 .726.3509 1.0744 1.1895 1.2481l1.6109.2908c.2454.0302.3834.117.3834.3483v.2124c-.0357.8129-.1022.849-1.0839.8411-2.7954-.117-5.5927-.085-8.3518 0-.9461.0292-1.023-.0575-.9794-.8496.0358-.4673.1024-.4928.629-.5797l1.1507-.1737c1.0231-.1747 1.399-.4928 1.4681-1.3931l.1021-1.9442-.0688-5.8321c-.0691-.726-.2559-1.4224-.734-2.0891-.6981-1.0741-1.7901-1.6239-3.2859-1.6833-1.5039-.0849-2.8305.3777-4.0915.9553-.8745.425-1.2582.928-1.1892 1.7705v4.2356zm65.8382.176v4.091c.0056.2913.0287.582.0691.8706.0308.3958.3726.7272.8386.8127.6031.1461 1.2243.2341 1.8512.2614.3506.0293.4198.1445.4552.3778v.2038c-.0354 1.0149-.174 1.1319-1.3629 1.0744-2.6595-.1444-5.3111-.1171-7.9679 0l-1.0226.0293c-.21 0-.2558-.0847-.3147-.2037a2.461 2.461 0 0 1 0-1.2182c.0354-.1745.1738-.2122.3836-.2613l1.4318-.2125c.8748-.1738 1.1892-.467 1.2224-1.2188l.1024-2.4364v-7.138c0-.5221-.2456-.8401-.8031-1.074-.6289-.291-1.2937-.4922-1.9945-.6962-.2096-.0574-.4193-.1169-.5933-.2038-.4552-.2614-.5113-.6371-.069-.9279.1983-.1349.4422-.2166.6982-.2332 2.2375-.2907 4.4033-.6967 6.5001-1.3926.2456-.0849.3504-.0301.4549.1439a.82.82 0 0 1 .1025.5796l-.1025 1.363c0 .1745-.1019.4247.0693.4927.2097.1164.3504-.1445.5242-.2125 1.032-.7187 2.1717-1.3226 3.3907-1.7983 1.0841-.4245 2.1993-.6959 3.4599-.6364 2.3426.1163 4.0197 1.1037 5.1015 2.8146.5624.9003.803 1.8853.9079 2.9025l.1021 2.1226.0359 6.4117c.0357.4921.2453.8128.8388.9874.6148.17 1.2461.2962 1.8872.3777.5625.0569.5931.1445.6288.5795v.1443c-.0694.9868-.1405 1.0144-1.3294.9555a87.622 87.622 0 0 0-7.8275 0c-.3503.0293-.6982 0-1.0228.0293-.2099 0-.3502-.0293-.3837-.2038-.0691-.3777-.1406-.7534-.0356-1.1612.0356-.1738.1403-.2613.3833-.2908l1.6109-.2124c.5625-.1167.8747-.4245.9461-.8489l.0691-.8136-.0356-6.0627c0-.6967-.036-1.393-.2098-2.089-.4194-1.4859-1.7822-2.5481-3.6312-2.6963-1.611-.1444-3.0686.204-4.4033.928-.665.3484-.946.8403-.946 1.45v4.3814c0-.0849 0-.0849.0357-.0849z" stroke="#fff" fill="#47474a"/><path d="M176.3449 10.5278c-.3839-2.1189-1.3297-4.0041-2.9713-5.658-1.4304-1.4607-3.2821-2.5982-5.383-3.3071-2.199-.7538-4.5441-.9874-6.9196-1.0449-.9791-.0295-14.3273.1445-15.3067 0-.2453-.0295-.4195.03-.5627.2038-.1738.2124-.3503.4352-.455.667-.4195.7854-.4195.7259.5932.8406.8387.117 1.6415.1739 2.4471.3776.734.2039 1.2581.5522 1.4321 1.2187.069.3184.1405 10.5299.1405 15.2898l-.1405 3.3966c-.036.2615-.0692.522-.174.7536-.1408.3481-.3837.637-.803.7854-.4615.1802-.9592.2884-1.468.3188-.9459.0851-1.0839.1164-1.3986.9868l-.1021.3189c-.0691.3776-.036.4352.4192.4352l10.4486.0849 4.0913-.0576 2.8308-.2907c3.2144-.4928 6.0807-1.5963 8.5253-3.365 1.3967-1.0241 2.5366-2.2661 3.3548-3.6558.9796-1.6238 1.399-3.3967 1.5041-5.1927.1738-1.0144.1019-2.0595-.1025-3.1036zm-5.0683 4.1184c-.1405 1.8578-.593 3.6563-1.7465 5.2799-1.4676 2.1185-3.5649 3.5987-6.4643 4.1189-1.2581.212-2.5164.3182-3.8356.1737-.9462-.0849-1.8513-.1737-2.7262-.4352-1.5726-.4672-2.1325-1.2735-2.1657-2.5474l-.0356-17.4936c0-1.0442.5625-1.2736 1.4678-1.3056 1.3628-.0848 2.7616-.0567 4.1245.0576 1.4508.1169 2.8745.4026 4.2296.8491 1.0061.3481 1.9387.8286 2.7615 1.4223 1.8872 1.3376 3.1449 3.0152 3.8357 4.9891.5625 1.5964.6646 3.2204.5625 4.8449zm34.112 2.8453c0-.1746 0-.3191-.0357-.4928-.3146-1.5964-1.3296-2.8151-2.8998-3.743-1.0126-.609-2.166-1.0149-3.3549-1.3057-.2098-.0571-.3839-.1166-.5932-.1444.0359-.1443.1405-.1738.2453-.2038.698-.2909 1.3629-.6091 1.9562-1.0443 1.0844-.7533 1.7902-1.6832 2.1661-2.8151.2098-.609.2098-1.2187.1403-1.8577-.1152-1.5137-1.0542-2.9024-2.5519-3.7725-1.6108-.9871-3.4957-1.3926-5.4518-1.4223-3.7742-.0571-7.5816 0-11.3535 0-1.0841 0-2.1661.0572-3.2859-.0845-.2097-.0301-.5114-.085-.6646.1162-.2564.3785-.5629.7542-.6651 1.1895-.0356.2034.0358.3181.3147.3475l2.4113.2911c.9459.1166 1.6109.5518 1.6775 1.2485a10.241 10.241 0 0 1 .102 1.4501l-.0692 5.424-.0355 10.7332c0 .6372-.1024 1.249-.2456 1.8853-.0702.4131-.4253.7542-.9076.8704-.6983.1746-1.3629.3483-2.0969.3483-.404-.0321-.7808.1731-.9079.4928-.1406.2607-.2556.5518-.3144.8128-.0691.3483.036.4673.4553.4248.3146-.03 11.8469.204 14.0129.0295 1.294-.1163 2.557-.2608 3.8433-.5793 2.1991-.5797 4.2296-1.4223 5.8353-2.8449 1.33-1.1613 2.0968-2.5536 2.166-4.1782.1023-.3778.1023-.7535.1023-1.1613zM188.4402 5.6023l.1021-2.3205c0-.435.2099-.6363.7339-.7259.8389-.1443 1.6775-.085 2.516-.0572.8391.0572 1.642.1445 2.4805.3481 1.5344.3783 2.726 1.1044 3.4266 2.3203.3182.5536.4847 1.1577.4884 1.771.036.8128-.0359 1.5963-.4192 2.3776-.5934 1.074-1.5345 1.7705-2.8996 1.9744s-5.2422.1171-5.8354.1171c-.5244 0-.5627-.0576-.5627-.4928V8.1823a15.477 15.477 0 0 1-.0358-2.5545zm11.3535 15.6083c-.593 1.3056-1.6774 2.2076-3.2141 2.6962-.839.2609-1.6777.4244-2.5574.378-1.084-.0302-2.1658 0-3.2477-.1744-1.4676-.2607-2.1323-1.422-2.2374-2.2631-.174-1.4793-.0691-2.9888-.1021-4.0906v-3.8299c0-.4673.0691-.6093.6647-.6093l3.2858.0297 2.2375.2124c1.5728.2907 3.0045.7854 4.1249 1.7984.9076.8128 1.3989 1.7975 1.5034 2.8718.1027 1.0148.0358 2.0023-.4194 2.9595z" stroke-linejoin="miter" fill="#c2bfbf" stroke-width="1.0211"/><path d="M111.0028 12.4697l.9077.117c.9795.0293 2.1328-.2615 2.4805-1.3925.192-.5406.192-1.1154 0-1.656-.2098 0-.3146.1443-.4195.2038-.5241.3478-1.1173.5517-1.7464.6092-1.2582.1171-2.5162.0576-3.7386-.3183l-1.7135-.4927c-1.1945-.3248-2.4523-.4619-3.7077-.4032-1.7822.1164-3.4594.6091-5.0322 1.3056-1.6776.7535-2.864 1.8853-3.4268 3.4243-.3143.8999-.3503 1.8256-.2095 2.7556.3503 2.1185 1.6776 3.5985 4.0532 4.3816.1406.0299.2453.0847.3833.1167.3147.1445.3504.2908.0691.4928l-.8745.4921-2.0967 1.0744c-.5242.2612-.5933.4671-.4196.9278.2082.542.5955 1.0247 1.1177 1.3924.4795.3416 1.0224.6166 1.6084.8135.3834.1445.3834.2123.0355.4669l-1.9942 1.1891c-.6648.4242-1.3298.8488-1.8873 1.3924-.7872.6995-1.1021 1.6793-.8386 2.6113.2597 1.0068.8952 1.9209 1.8152 2.6112.9092.6986 2.014 1.197 3.2146 1.4501 1.956.4671 3.984.4924 5.9758.1738 2.8642-.4353 5.3701-1.486 7.3392-3.2777 1.3627-1.1887 2.1659-2.5813 2.2374-4.2458.1576-1.9881-1.4386-3.7787-3.7744-4.2355l-1.8871-.2908-5.7665-.4248c-.629-.0293-1.2577-.1162-1.7819-.3776-.665-.3484-.839-1.0149-.4193-1.45.3143-.3183.6976-.5221 1.1888-.5517l1.1174-.0854c2.21-.1864 4.2846-.9712 5.9045-2.233.8649-.6646 1.4832-1.5206 1.7821-2.4669.4195-1.2487.4195-2.5477.0692-3.8213-.1023-.3184-.0692-.3483.4192-.2908zm-8.5664 14.4513c.2097.0294.4194 0 .6289 0 1.4681.0573 2.9715.1444 4.4034.467a10.364 10.364 0 0 1 1.3632.4352c1.3985.6367 1.9226 1.741 1.7465 2.9297-.2097 1.3056-1.0844 2.2334-2.4472 2.8445-.9078.4247-1.923.6095-2.9711.6965-.3838.0294-.7342 0-1.1177 0-1.2224.0294-2.4115-.0849-3.5647-.4927-.803-.2609-1.4681-.6366-2.0612-1.1611-1.2222-1.0148-1.7899-2.8725.0358-4.3815 1.1174-.8495 2.3781-1.4503 3.9841-1.3376zm3.9838-9.0524c-.7337 1.537-2.3419 2.002-3.9478 1.7984-1.4679-.1746-2.552-.8411-3.2477-1.9448-.9076-1.4801-1.1507-3.0149-.6291-4.6134.3837-1.1886 1.2582-2.0892 2.7949-2.2928 1.9565-.291 3.8358.2911 4.8228 1.9152.5113.7854.734 1.7407.734 3.1036-.036.5517-.1743 1.3056-.5244 2.0319zm-44.0285-1.9743c-.3144-1.5669-1.0124-2.9894-2.3064-4.178-1.923-1.771-4.3675-2.5479-7.1291-2.5538-2.4116-.03-4.6796.5515-6.7098 1.5963-1.9964.9916-3.4592 2.5797-4.0893 4.4391-.593 1.6834-.5624 3.3967-.1021 5.1055 1.2223 4.5858 5.4878 6.5561 10.5868 6.2674 1.5033-.0851 2.9353-.4928 4.2956-1.045 2.0279-.7855 3.4957-2.0315 4.5083-3.6853.8031-1.3628 1.1507-2.8148 1.1178-4.4687l-.1741-1.48zm-4.9608 6.4406c-.5105 1.3342-1.9238 2.291-3.6002 2.4375-1.5344.174-2.9713-.1445-4.2628-.9-.9323-.5693-1.6871-1.3154-2.2017-2.176-1.4319-2.4373-1.6773-4.989-.946-7.6003.2353-.8083.7446-1.5434 1.4677-2.1186 1.294-.9873 2.795-1.2187 4.475-.9278 1.6109.2908 2.8305 1.0147 3.8356 2.1185s1.4679 2.378 1.7465 3.7155c.1406.6666.1406 1.3627.1738 1.7978 0 1.3927-.1405 2.5478-.6646 3.6562zm81.3168-6.2071c-.2557-1.6834-1.0127-3.2208-2.4473-4.4965-1.8871-1.7112-4.3342-2.4374-7.0576-2.4667-2.3423-.0299-4.5083.5221-6.5003 1.4793-2.2374 1.1043-3.7742 2.6687-4.3675 4.7872-.7084 2.3117-.4114 4.7565.8385 6.9038 1.1508 2.0318 3.1097 3.3374 5.6975 3.9171 2.8642.6369 5.5924.3482 8.2465-.7262 2.3067-.9271 3.9483-2.3774 4.8919-4.352.5628-1.1612.7673-2.4074.8029-3.8593.0362-.2612-.0356-.7261-.1023-1.1888zm-4.823 5.8314c-.5624 1.5671-1.7465 2.5819-3.7382 2.8151-1.4679.1744-2.8643-.1165-4.1248-.8129-1.0843-.609-1.8514-1.4226-2.4114-2.378-.6289-1.0148-.9792-2.0885-1.1173-3.1905-.2098-1.3628-.2098-2.6962.1735-4.0613.0734-.2692.1785-.5313.3149-.7831.9796-2.0317 3.1449-2.9594 5.6972-2.4948 1.7133.3188 3.0047 1.1044 3.9838 2.293.9463 1.1611 1.3988 2.4371 1.6109 3.8214.1026.552.141 1.1313.1026 1.6239 0 1.1317-.1026 2.1759-.5116 3.1907z" stroke="#fff" fill="#47474a"/></svg>