<svg xmlns="http://www.w3.org/2000/svg" width="200" height="200" stroke="none" stroke-linecap="round" stroke-linejoin="round" fill="#fff" fill-rule="evenodd"><rect fill="#000" height="200" width="200" fill-opacity=".86" rx="15"/><g fill="#00d8ff"><circle cx="98.75" cy="98.75" r="16.25"/><path d="M7.5 101.2488C7.5 79.7833 49.3122 62.5 101.2496 62.5S195 79.7833 195 101.2488 153.1878 140 101.2496 140 7.5 122.7167 7.5 101.2488zm8.3706 0c0-16.8002 38.079-30.3249 85.379-30.3249s85.3797 13.5247 85.3797 30.3249-38.0796 30.3272-85.3797 30.3272-85.379-13.5247-85.379-30.3272z"/><path d="M53.5951 18.7097c18.9001-10.912 55.3704 17.1159 81.7711 62.8433s32.4384 91.3254 13.5383 102.2374-55.37-17.1158-81.7708-62.8433-32.4395-91.325-13.5386-102.2374zm4.2549 7.3697c14.7921-8.5402 46.056 18.1107 70.0997 59.7556s31.4921 82.0456 16.7 90.5858-46.0561-18.1109-70.0996-59.7555-31.4918-82.0458-16.7-90.5859z"/><path d="M148.9045 18.7095c18.9001 10.912 12.8624 56.5101-13.5384 102.2375s-62.8709 73.7552-81.771 62.8432S40.7329 127.2806 67.1337 81.553s62.87-73.7559 81.7709-62.8435zm-4.2549 7.3697c14.7921 8.5403 7.3437 48.941-16.7 90.5859S72.6421 184.9609 57.85 176.4206s-7.3435-48.9412 16.7-90.5858 55.3079-68.2956 70.0997-59.7556z"/></g></svg>