<svg xmlns="http://www.w3.org/2000/svg" width="201" height="200" stroke="none" stroke-linecap="round" stroke-linejoin="round" fill="#fff" fill-rule="nonzero"><path d="M198.4426 149.5118c1.5775-2.4075 2.5574-5.1206 2.5574-7.5567V57.3938c0-2.436-.9789-5.1485-2.5564-7.5561L100.5 99.6747l97.9426 49.8371z" fill="#00599c"/><path d="M109.2033 197.5218l83.093-42.2803c2.3941-1.2181 4.5696-3.3213 6.1464-5.7297l-97.9429-49.837-97.9426 49.8378c1.5774 2.4076 3.753 4.5112 6.1461 5.7289l83.093 42.2803c4.7867 2.4361 12.6208 2.4361 17.407 0z" fill="#004482"/><path d="M198.4436 49.837c-1.5782-2.4083-3.7539-4.5113-6.1471-5.7295L109.2035 1.827c-4.7863-2.436-12.6207-2.436-17.407 0L8.7035 44.1075C3.9163 46.5429 0 52.5222 0 57.3936v84.5616c0 2.4361.979 5.149 2.5574 7.5568L100.5 99.6748l97.9436-49.8378z" fill="#659ad2"/><path d="M100.4997 158.7242c-36.944 0-66.9997-26.4894-66.9997-59.0497s30.0557-59.0491 66.9997-59.0491c23.839 0 46.0722 11.3061 58.0215 29.506l-28.9959 14.7878c-5.9805-9.1098-17.1029-14.769-29.0256-14.769-18.4723 0-33.4994 13.2445-33.4994 29.5243s15.0271 29.5249 33.4994 29.5249c11.9234 0 23.0463-5.6592 29.0281-14.7709l28.9958 14.7871c-11.9501 18.2019-34.1833 29.5086-58.0239 29.5086zm67.0001-62.3305h-7.445v-6.5605h-7.4433v6.5605h-7.4448v6.5613h7.4448v6.5612h7.4433v-6.5612h7.445zm27.9166 0h-7.445v-6.5605h-7.4433v6.5605h-7.4448v6.5613h7.4448v6.5612h7.4433v-6.5612h7.445z"/></svg>