<svg xmlns="http://www.w3.org/2000/svg" width="201" height="202" stroke="#4f4f4f" stroke-linecap="round" stroke-linejoin="round" fill="#8cc84b" fill-rule="evenodd"><path d="M91.4767 2.6337c5.4646-2.8385 12.5824-2.8514 18.0424 0l82.412 42.2421c5.1657 2.6404 8.621 7.8573 8.5681 13.2588v84.7416c.0391 5.6251-3.7579 10.9668-9.208 13.5476l-82.1181 42.0394c-5.5779 2.8943-12.8385 2.6714-18.2423-.46l-24.6396-12.9284c-1.6773-.9076-3.5681-1.6297-4.7526-3.1057 1.0473-1.2807 2.9193-1.4403 4.4402-1.9994 3.4265-.9886 6.573-2.5756 9.7208-4.1156.796-.4945 1.7676-.305 2.5307.1375l21.0185 11.0272c1.5023.7869 3.0239-.258 4.308-.9076l80.63-41.291c.9955-.4345 1.5453-1.3932 1.4644-2.3827l.0096-83.8684c.114-1.1225-.602-2.1548-1.7207-2.6141l-81.833-41.8552c-.9675-.6036-2.2443-.6052-3.2138-.0042L17.0693 55.967c-1.1145.4602-1.8625 1.4753-1.7297 2.6021v83.8726c-.097.9889.495 1.9276 1.4835 2.3529l21.853 11.1989c4.1035 2.0042 9.1422 3.1953 13.6635 1.6596 3.9897-1.2985 6.7867-4.9933 6.7107-8.8375l.028-83.3741c-.0995-1.2337 1.1904-2.2533 2.512-2.1371l10.4975.0087c1.4603-.0301 2.465 1.2985 2.2849 2.5415l-.0239 83.9027c.0092 7.4535-3.3652 15.5638-10.9625 19.2107-9.3597 4.4-20.9283 3.467-30.1751-.752-8.0049-3.6257-15.6441-7.9044-23.5071-11.7888-5.464-2.5664-9.2418-7.9295-9.2034-13.5501V58.1346c-.0575-5.5133 3.5351-10.8251 8.8621-13.427L91.4767 2.6337zm25.2541 58.1385c12.0435-.6872 24.9362-.4072 35.7739 4.8522 8.3912 4.0303 13.0428 12.4888 13.1908 20.752-.2342 1.1146-1.549 1.7292-2.7492 1.653-3.4941-.0042-6.989.0422-10.4835-.0212-1.4823.0505-2.344-1.1606-2.5297-2.3226-1.004-3.9534-3.4366-7.8694-7.6348-9.7766-6.4441-2.86-13.9164-2.716-20.9441-2.6566-5.1297.2414-10.6463.6354-14.9926 3.3094-3.3369 2.0258-4.3506 6.1152-3.1593 9.408 1.1224 2.3649 4.2019 3.1278 6.7219 3.8312 14.5134 3.3646 29.8934 3.03 44.13 7.4582 5.8945 1.8052 11.6603 5.3146 13.678 10.7852 2.6386 7.332 1.4821 16.0958-4.4026 21.9821-4.7723 4.8433-11.7228 7.48-18.6551 8.9118-9.2223 1.8229-18.7929 1.8693-28.158 1.0595-8.8066-.8896-17.9706-2.9406-24.7695-8.2595-5.8137-4.4745-8.6528-11.4463-8.3708-18.1756.0673-1.1362 1.3437-1.9289 2.572-1.8355l10.5563.0044c1.4051-.0891 2.447.9874 2.519 2.1618.6496 3.767 2.2467 7.7209 5.9524 9.9544 7.1511 4.0896 16.1252 3.8096 24.314 3.9242 6.784-.2668 14.3997-.3478 19.9363-4.3226 2.9206-2.2669 3.7863-6.06 2.9966-9.3229-.8549-2.7549-4.1063-4.0387-6.8981-4.8783-14.328-4.0175-29.8794-2.5598-44.0685-7.103-5.7607-1.8048-11.3311-5.2164-13.5443-10.4625-3.0877-7.4244-1.6731-16.608 4.8288-22.2955 6.3388-5.6574 15.4896-7.8356 24.1901-8.6156z"/></svg>